<?xml version="1.0"?>
<svg xmlns="http://www.w3.org/2000/svg" xmlns:xlink="http://www.w3.org/1999/xlink" version="1.1" id="Capa_1" x="0px" y="0px" viewBox="0 0 480 480" style="enable-background:new 0 0 480 480;" xml:space="preserve" width="512px" height="512px" class=""><g><g>
	<g>
		<g>
			<path d="M400.003,208h-27.552c-7.196-33.685-25.705-63.892-52.448-85.6V8c0-4.418-3.582-8-8-8h-176c-4.418,0-8,3.582-8,8v114.288     C62.993,175.147,53.142,270.7,106.001,335.71c6.56,8.069,13.933,15.441,22.002,22.002V472c0,4.418,3.582,8,8,8h176     c4.418,0,8-3.582,8-8V357.6c26.743-21.709,45.254-51.916,52.456-85.6h27.544c4.418,0,8-3.582,8-8v-48     C408.003,211.582,404.422,208,400.003,208z M304.003,16v94.752c-1.928-1.2-3.92-2.288-5.896-3.4     c-0.904-0.504-1.784-1.064-2.696-1.552c-3.403-1.824-6.869-3.512-10.4-5.064c-0.8-0.336-1.6-0.616-2.336-0.944     c-2.776-1.168-5.6-2.272-8.408-3.272c-1.272-0.44-2.56-0.8-3.84-1.24c-2.4-0.8-4.8-1.496-7.264-2.144     c-1.408-0.376-2.824-0.72-4.248-1.056c-2.4-0.56-4.8-1.056-7.264-1.504c-1.416-0.256-2.824-0.52-4.256-0.744     c-2.616-0.4-5.256-0.704-7.912-0.968c-1.248-0.128-2.48-0.296-3.736-0.384c-3.864-0.296-7.792-0.48-11.744-0.48     c-3.952,0-7.88,0.184-11.776,0.48c-1.256,0.088-2.496,0.256-3.744,0.384c-2.648,0.264-5.28,0.568-7.896,0.968     c-1.432,0.224-2.856,0.488-4.272,0.744c-2.4,0.448-4.848,0.944-7.248,1.504c-1.424,0.336-2.848,0.68-4.264,1.056     c-2.4,0.648-4.8,1.368-7.2,2.136c-1.296,0.416-2.6,0.8-3.88,1.256c-2.8,0.984-5.6,2.08-8.296,3.2     c-0.8,0.344-1.648,0.632-2.456,0.992c-3.504,1.547-6.949,3.229-10.336,5.048c-0.936,0.496-1.84,1.072-2.768,1.6     c-1.96,1.104-3.928,2.176-5.84,3.368L144.003,16H304.003z M144.003,464v-94.752c1.928,1.2,3.92,2.288,5.896,3.4     c0.904,0.504,1.784,1.064,2.696,1.552c3.397,1.824,6.864,3.512,10.4,5.064c0.8,0.336,1.6,0.616,2.344,0.944     c2.776,1.168,5.6,2.272,8.4,3.272c1.272,0.44,2.56,0.8,3.84,1.24c2.4,0.8,4.8,1.496,7.264,2.144     c1.408,0.376,2.824,0.72,4.248,1.056c2.4,0.56,4.8,1.056,7.264,1.504c1.416,0.256,2.832,0.52,4.256,0.744     c2.616,0.4,5.256,0.704,7.912,0.968c1.248,0.128,2.48,0.296,3.736,0.384c3.896,0.296,7.824,0.48,11.776,0.48     c3.952,0,7.88-0.184,11.776-0.48c1.256-0.088,2.496-0.256,3.744-0.384c2.648-0.264,5.288-0.568,7.896-0.968     c1.432-0.224,2.856-0.488,4.28-0.744c2.4-0.448,4.8-0.944,7.2-1.504c1.424-0.336,2.848-0.68,4.264-1.056     c2.4-0.648,4.8-1.368,7.2-2.136c1.296-0.416,2.6-0.8,3.88-1.256c2.8-0.984,5.6-2.08,8.304-3.2c0.8-0.336,1.6-0.624,2.4-0.984     c3.504-1.541,6.949-3.221,10.336-5.04c0.944-0.512,1.856-1.08,2.792-1.6c1.952-1.104,3.912-2.168,5.824-3.36L304.003,464H144.003     z M358.123,262.68c-5.645,33.745-23.88,64.093-51.024,84.92c-23.733,18.511-52.997,28.513-83.096,28.4     c-3.8,0-7.584-0.152-11.328-0.456c-4.692-0.41-9.36-1.064-13.984-1.96C124.929,359.651,76.428,288.56,90.361,214.798     c6.183-32.732,24.17-62.054,50.547-82.398c59.45-45.906,144.857-34.926,190.763,24.524c13.645,17.671,22.73,38.43,26.453,60.444     C360.635,232.368,360.635,247.68,358.123,262.68z M392.003,256h-16.8c0.048-0.448,0-0.92,0.072-1.36     c0.456-4.8,0.752-9.672,0.752-14.64s-0.296-9.848-0.752-14.64c0-0.448,0-0.92-0.072-1.36h16.8V256z" data-original="#000000" class="active-path" data-old_color="#000000" fill="#F8F4F4"/>
			<path d="M286.227,166.472v-0.008L234.275,218.4c-6.502-3.079-14.042-3.079-20.544,0l-29.328-29.312     c-3.178-3.069-8.243-2.981-11.312,0.197c-2.994,3.1-2.994,8.015,0,11.115l29.312,29.312c-5.6,12.014-0.4,26.293,11.614,31.892     c9.071,4.228,19.813,2.383,26.954-4.628c7.226-7.153,9.09-18.117,4.632-27.256l51.936-51.936     c3.069-3.178,2.982-8.242-0.196-11.312C294.243,163.478,289.328,163.478,286.227,166.472z M229.659,245.656v0.008     c-3.125,3.124-8.19,3.123-11.314-0.002c-3.124-3.125-3.123-8.19,0.002-11.314c3.125-3.124,8.19-3.123,11.314,0.002     c1.498,1.499,2.341,3.531,2.342,5.65C232.003,242.122,231.16,244.156,229.659,245.656z" data-original="#000000" class="active-path" data-old_color="#000000" fill="#F8F4F4"/>
			<path d="M224.003,144c4.418,0,8-3.582,8-8v-16c0-4.418-3.582-8-8-8s-8,3.582-8,8v16C216.003,140.418,219.585,144,224.003,144z" data-original="#000000" class="active-path" data-old_color="#000000" fill="#F8F4F4"/>
			<path d="M224.003,336c-4.418,0-8,3.582-8,8v16c0,4.418,3.582,8,8,8s8-3.582,8-8v-16C232.003,339.582,228.422,336,224.003,336z" data-original="#000000" class="active-path" data-old_color="#000000" fill="#F8F4F4"/>
			<path d="M120.003,232h-16c-4.418,0-8,3.582-8,8s3.582,8,8,8h16c4.418,0,8-3.582,8-8S124.422,232,120.003,232z" data-original="#000000" class="active-path" data-old_color="#000000" fill="#F8F4F4"/>
			<path d="M344.003,232h-16c-4.418,0-8,3.582-8,8s3.582,8,8,8h16c4.418,0,8-3.582,8-8S348.422,232,344.003,232z" data-original="#000000" class="active-path" data-old_color="#000000" fill="#F8F4F4"/>
		</g>
	</g>
</g></g> </svg>
